<svg xmlns="http://www.w3.org/2000/svg" viewBox="0 0 32 32" fill="none">
  <rect width="32" height="32" rx="7" fill="#0F172A"/>
  <path d="M4 18 C8 22 24 22 28 18 L27 20 C22 25 10 25 5 20Z" fill="#C46A2D"/>
  <path d="M28 18 C30 16 31 14 29 13 L27 16Z" fill="#C46A2D"/>
  <line x1="16" y1="6" x2="16" y2="18" stroke="white" stroke-width="1.2"/>
  <path d="M16.5 7 L24 13 L16.5 17Z" fill="#C46A2D" opacity="0.9"/>
  <line x1="10" y1="20" x2="8.5" y2="24" stroke="white" stroke-width="0.9" stroke-linecap="round" opacity="0.7"/>
  <line x1="13.5" y1="21" x2="12" y2="25" stroke="white" stroke-width="0.9" stroke-linecap="round" opacity="0.7"/>
  <line x1="18.5" y1="21" x2="20" y2="25" stroke="white" stroke-width="0.9" stroke-linecap="round" opacity="0.7"/>
  <line x1="22" y1="20" x2="23.5" y2="24" stroke="white" stroke-width="0.9" stroke-linecap="round" opacity="0.7"/>
  <path d="M3 27 Q7 25.5 11 27 Q15 28.5 19 27 Q23 25.5 27 27" stroke="white" stroke-width="0.7" stroke-linecap="round" opacity="0.3"/>
</svg>

